<svg xmlns="http://www.w3.org/2000/svg" fill="none" preserveAspectRatio="none" viewBox="0 0 848 781"><g opacity=".95"><mask id="a" width="848" height="781" x="0" y="0" maskUnits="userSpaceOnUse" style="mask-type:luminance"><path fill="#fff" d="M3.55 4.98 28.57 0l59.6 6.37 111.49-2.22h79.95l28.07 3.88 4.78-3.46L370.75.83l54.52 4.15s59.6-.55 119-.55 195.3 4.43 195.3 4.43l47.2-2.5 2.85-1.1 43.12.28 11.4-1.94 2.84 1.38-.2 14.12v29.33l-1.63 141.98-5.08 4.43 4.88 9.4 2.24 202.31-2.24 14.4 1.42 55.62 1.43 6.37.2 209.22-1.83 56.74 1.83 7.75-1.02 18.26-7.12 3.05-56.55-6.1-40.9 8.03-85.64-6.92-7.32 8.03L469 774.91l-25.63 4.15-44.55-8.3-26.24 4.98-77.92.14-70.39 4.29-9.15-3.32L190.5 781l-77.3-4.7-2.24 1.1-79.54-3.6-27.87 1.11-1.43-9.68 4.48-10.8-5.9-45.1s2.44-58.96 2.44-83.04c0-24.07-2.03-33.48-3.05-65.3-1.02-31.84 6.92-139.77 6.92-139.77l-5.5-35.43 2.65-5.25-.81-170.76 3.25-5.53-3.25-50.1v-98.8L4.36 18l-.81-13Z"/></mask><g mask="url(#a)"><path fill="url(#b)" d="M-48.94-57.01h933.76v888.38H-48.94z"/><g filter="url(#c)"><path fill="url(#d)" fill-opacity=".15" d="m566.01 617.12-131.48-5.67-33.3-39.68-64.54 36.85-250.4-34.01-62.85 109.76L0 799.48l347.22 7.53 146.77-17 162.4 8.5 184.48 8.15 7.13-95.03-16.3-20.82-39.08-85.02-24.8-2.84-43.15 19.84-73.38-42.51-30.58 51.02-54.7-14.18Z"/></g><g filter="url(#e)"><path fill="url(#f)" fill-opacity=".2" d="m281.99 219.44 131.48 7.86 33.3 54.99 64.54-51.06 250.4 47.13 62.85-152.12L848-33.3 500.78-43.73 354.01-20.16l-162.4-11.78L7.14-43.23 0 88.47l16.3 28.85 39.08 117.83 24.8 3.93 43.15-27.5 73.38 58.92 30.58-70.7 54.7 19.64Z"/></g><path fill="url(#g)" fill-opacity=".2" d="m275.85 768.32 136.5-.56 34.58-3.92 67.02 3.64 259.97-3.36 74.08 6.44-121 15.4-223.99 1.13-152.38-1.68-168.61.84-117.47-2.8-61.73-7L0 775.6l40.57-8.4 25.75-.28 44.8 1.96 72.8.22 27.47 5.81 6.3-6.92 58.16.33Z"/><path fill="url(#h)" fill-opacity=".3" d="M50.38-21.03 3.26 2.2l15.46 8.03 6.92-3.6 46.18 6.64 71.46 1.35 38.98 2.65 6.55-5.38 32.42 8.03 29.93-2.23 44.26-5.52 10.03 3.85 85.26-7.25 76.57 10.87 38.1-3.87 2.04-5.82 17.01 3.9 19.06-1.94 107.53 1.36 7.66 2.19 99.88-.84L847.8 3.6c-1.02-18.27-229.96-18.45-236.72-18.45-6.76 0-39.83 9.6-55.52 14.41L468.04-2.5 290-.44 50.4-21.04Z"/></g></g><defs><radialGradient id="b" cx="0" cy="0" r="1" gradientTransform="rotate(44 9.83 -13.99) scale(1214 1951)" gradientUnits="userSpaceOnUse"><stop stop-opacity=".92"/><stop offset=".53" stop-color="#051410" stop-opacity=".93"/><stop offset="1" stop-opacity=".92"/></radialGradient><radialGradient id="g" cx="0" cy="0" r="1" gradientTransform="matrix(454 23 -32 617 393.89 763.84)" gradientUnits="userSpaceOnUse"><stop stop-color="#48A9C8"/><stop offset="1" stop-color="#48C89D" stop-opacity=".1"/></radialGradient><radialGradient id="h" cx="0" cy="0" r="1" gradientTransform="matrix(548 27 -64 1314 192.26 19.93)" gradientUnits="userSpaceOnUse"><stop stop-color="#48C8B8"/><stop offset="1" stop-color="#48C89D" stop-opacity=".1"/></radialGradient><linearGradient id="d" x1="424" x2="424" y1="807.01" y2="629.87" gradientUnits="userSpaceOnUse"><stop stop-color="#0E9686"/><stop offset="1" stop-color="#48C89D" stop-opacity="0"/></linearGradient><linearGradient id="f" x1="424" x2="424" y1="-43.73" y2="201.78" gradientUnits="userSpaceOnUse"><stop stop-color="#48C89D"/><stop offset="1" stop-color="#48C89D" stop-opacity="0"/></linearGradient><filter id="c" width="1188" height="575.24" x="-170" y="401.77" color-interpolation-filters="sRGB" filterUnits="userSpaceOnUse"><feFlood flood-opacity="0" result="BackgroundImageFix"/><feBlend in="SourceGraphic" in2="BackgroundImageFix" result="shape"/><feGaussianBlur result="effect1_foregroundBlur_2320_2024" stdDeviation="85"/></filter><filter id="e" width="1188" height="666.02" x="-170" y="-213.73" color-interpolation-filters="sRGB" filterUnits="userSpaceOnUse"><feFlood flood-opacity="0" result="BackgroundImageFix"/><feBlend in="SourceGraphic" in2="BackgroundImageFix" result="shape"/><feGaussianBlur result="effect1_foregroundBlur_2320_2024" stdDeviation="85"/></filter></defs></svg>